<?xml version="1.0" encoding="UTF-8"?>
<!DOCTYPE svg PUBLIC "-//W3C//DTD SVG 1.1//EN" "http://www.w3.org/Graphics/SVG/1.1/DTD/svg11.dtd">
<!-- Creator: CorelDRAW 2020 (64-Bit) -->
<svg xmlns="http://www.w3.org/2000/svg" xml:space="preserve" width="576.573mm" height="139.192mm" version="1.1" style="shape-rendering:geometricPrecision; text-rendering:geometricPrecision; image-rendering:optimizeQuality; fill-rule:evenodd; clip-rule:evenodd"
viewBox="0 0 18703.48 4515.26"
 xmlns:xlink="http://www.w3.org/1999/xlink"
 xmlns:xodm="http://www.corel.com/coreldraw/odm/2003">
 <defs>
  <style type="text/css">
   <![CDATA[
    .fil2 {fill:black}
    .fil4 {fill:#025098}
    .fil5 {fill:#40B384}
    .fil1 {fill:#E8306E}
    .fil3 {fill:#FDC300}
    .fil0 {fill:black;fill-rule:nonzero}
   ]]>
  </style>
 </defs>
 <g id="Слой_x0020_1">
  <metadata id="CorelCorpID_0Corel-Layer"/>
  <g id="_2753566364864">
   <g>
    <polygon class="fil0" points="5470.44,2619.09 5470.44,1032.52 5382.83,1032.52 5323.07,860.5 5470.44,860.48 5470.44,277.98 5642.47,277.98 5642.47,860.5 6070.65,860.48 6070.65,277.98 6242.69,277.98 6242.69,2619.11 6070.65,2619.09 6070.65,1032.52 5642.47,1032.52 5642.47,2619.09 "/>
    <polygon class="fil0" points="6593.4,2619.09 6593.4,1025.57 6505.8,1025.57 6442.55,853.54 6593.4,853.54 6593.4,277.98 7193.62,277.98 7193.62,450.01 6765.44,450.01 6765.44,853.52 7172.76,853.54 7236.01,1025.57 6765.75,1025.57 6765.75,2447.07 7193.94,2447.07 7193.94,2619.09 "/>
    <polygon class="fil0" points="7330.56,2619.09 7762.22,1162.5 7495.31,277.98 7677.79,277.98 7856.78,930.69 8021.86,277.98 8204.32,277.98 7955.12,1116.96 8376.35,2619.09 8193.89,2619.09 7864.05,1358.88 7516.51,2619.09 "/>
    <polygon class="fil0" points="8446.87,277.98 8632.82,277.98 8980.37,1517 9310.2,277.98 9492.69,277.98 8794.11,2619.11 8611.64,2619.09 8878.55,1734.57 "/>
    <path class="fil0" d="M10282.66 225.16l498.4 2225.38 49 0c143.88,0 217.57,73.69 228.02,217.57 3.47,10.44 3.47,31.62 3.47,63.25l-154.32 0 0 -31.62c0,-52.81 -38.58,-80.64 -112.26,-80.64l-1063.52 0c-73.69,0 -112.26,28.14 -112.26,80.64l0 63.25 -154.33 -59.77 0 -35.11c10.44,-143.88 87.91,-217.57 231.81,-217.57l77.16 -3.47 508.84 -2221.91zm-326.36 2221.9l645.76 0 -319.4 -1498.66 -326.36 1498.66z"/>
    <path class="fil0" d="M13146.83 600.85c235.28,235.28 351.03,526.55 351.03,874.09 0,319.4 -119.22,593.27 -354.5,824.76 -238.77,235.28 -523.06,351.03 -849.42,351.03 -329.83,0 -610.66,-119.22 -845.94,-354.5 -235.28,-235.28 -354.5,-516.1 -354.5,-845.94 0,-329.85 115.74,-614.14 351.03,-849.42 235.29,-235.28 512.62,-354.5 838.98,-354.5 340.27,-0.01 628.05,119.21 863.33,354.49zm-126.17 1579.31c203.66,-200.17 305.49,-435.15 305.49,-709.01 0,-294.74 -101.83,-543.93 -302,-747.59 -200.17,-203.66 -445.9,-305.49 -737.15,-305.49 -280.82,0 -519.59,101.83 -719.44,302 -200.17,203.66 -301.69,445.9 -301.69,730.19 0,284.29 101.83,526.54 301.69,726.72 200.17,200.17 442.41,301.69 726.72,301.69 280.49,0.01 522.73,-98.33 726.39,-298.52z"/>
    <polygon class="fil0" points="14522.79,277.98 14522.79,818.43 14975.65,277.98 15196.69,277.98 14701.78,857.01 15298.52,2619.09 15112.57,2619.09 14522.79,857.01 14522.79,2619.09 14347.27,2619.09 14347.27,857.01 13757.49,2619.09 13571.54,2619.09 14168.29,857.01 13673.37,277.98 13894.43,277.98 14347.29,818.43 14347.27,277.98 "/>
    <polygon class="fil0" points="15484.79,2619.09 15484.79,1032.52 15397.2,1032.52 15337.43,860.5 15484.79,860.48 15484.79,277.98 15656.83,277.98 15656.83,860.5 16085.02,860.48 16085.02,277.98 16257.04,277.98 16257.04,2619.11 16085.02,2619.09 16085.02,1032.52 15656.83,1032.52 15656.83,2619.09 "/>
    <polygon class="fil0" points="17257.32,2619.09 17257.32,537.6 16762.4,835.81 16762.4,2618.78 16590.36,2618.78 16590.36,277.98 16762.4,277.98 16762.4,639.44 17429.36,235.93 17429.36,2619.11 "/>
    <polygon class="fil0" points="17755.7,2619.09 17755.7,277.98 17927.74,277.98 17927.74,818.43 18380.61,277.98 18601.65,277.98 18106.73,857.01 18703.48,2619.09 18517.53,2619.09 17927.74,857.01 17927.74,2619.09 "/>
   </g>
   <g>
    <path class="fil0" d="M5527.98 3525.75c-30.05,-16.44 -53.45,-38.9 -70.21,-67.67 -16.76,-28.78 -25.31,-61.03 -25.31,-96.77 0,-35.74 8.53,-67.99 25.31,-96.77 16.76,-28.78 40.16,-51.23 70.21,-67.67 30.05,-16.44 63.25,-24.67 100.24,-24.67 36.68,0 69.9,8.23 99.61,24.36 29.72,16.13 52.81,38.89 69.89,67.67 17.08,28.78 25.61,61.03 25.61,97.09 0,36.06 -8.53,67.99 -25.61,96.77 -17.08,28.78 -40.17,51.55 -69.89,67.67 -29.73,16.13 -62.62,24.36 -99.61,24.36 -36.99,0.31 -70.2,-7.91 -100.24,-24.36zm179.94 -30.35c23.72,-13.28 42.37,-31.62 55.66,-55.34 13.6,-23.72 20.24,-49.97 20.24,-78.74 0,-28.78 -6.64,-55.34 -20.24,-78.75 -13.6,-23.4 -31.94,-42.06 -55.66,-55.34 -23.72,-13.29 -50.28,-19.92 -79.7,-19.92 -29.41,0 -55.97,6.64 -80.01,19.92 -24.04,13.29 -42.69,31.62 -56.29,55.34 -13.6,23.72 -20.55,49.97 -20.55,78.75 0,28.78 6.64,55.34 20.55,78.74 13.6,23.4 32.25,42.07 56.29,55.34 23.72,13.29 50.6,19.92 80.01,19.92 29.41,0 55.99,-6.64 79.7,-19.92z"/>
    <path class="fil0" d="M6112.72 3292.06c20.23,11.38 36.06,27.51 47.44,48.38 11.38,20.55 17.08,44.27 17.08,70.83 0,27.19 -6.01,51.55 -17.71,72.42 -12.02,21.19 -28.46,37.31 -49.65,49.02 -21.18,11.7 -45.54,17.39 -73.37,17.39 -46.49,0 -82.22,-16.13 -107.84,-48.7 -25.61,-32.57 -38.26,-77.47 -38.26,-135.03 0,-59.76 11.39,-105.62 34.16,-137.57 22.77,-31.93 58.51,-53.45 106.89,-64.82l125.23 -28.78 6.33 34.47 -117.96 27.2c-40.16,8.85 -69.26,24.67 -88.22,47.12 -18.97,22.45 -29.1,55.66 -30.68,99.61 11.38,-21.5 27.19,-38.58 47.12,-50.6 20.23,-12.34 43.32,-18.34 69.58,-18.34 26.54,0.01 49.62,6.02 69.87,17.41zm-22.77 213.46c15.49,-9.16 27.51,-21.82 36.06,-37.94 8.53,-16.13 12.97,-34.79 12.97,-55.34 0,-20.55 -4.11,-38.58 -12.65,-54.07 -8.53,-15.49 -20.55,-27.83 -35.74,-36.37 -15.19,-8.55 -32.89,-12.97 -52.82,-12.97 -19.93,0 -37.31,4.42 -52.82,12.97 -15.51,8.54 -27.51,20.87 -36.06,36.37 -8.53,15.49 -12.97,33.52 -12.97,54.07 0,20.55 4.42,38.9 12.97,55.34 8.53,16.44 20.87,29.09 36.37,37.94 15.49,9.17 33.2,13.6 52.5,13.6 19.29,0 36.68,-4.44 52.18,-13.6z"/>
    <path class="fil0" d="M6643.68 3268.02l0 279.23 -385.49 0.01 0 -279.23 37.63 -0.01 0 246.35 136.93 0 0 -246.35 37.63 0 0 246.35 135.35 0 0 -246.35 37.94 0zm43.02 246.35l0 93.92 -35.42 0.01 0 -61.03 -47.44 0 0 -32.89 82.87 -0.01z"/>
    <path class="fil0" d="M6995.66 3419.18l-233.71 0c2.22,29.09 13.29,52.5 33.52,70.52 20.23,18.03 45.54,26.88 76.52,26.88 17.39,0 33.2,-3.16 47.76,-9.16 14.54,-6.33 27.19,-15.18 37.63,-27.2l21.19 24.36c-12.34,14.86 -27.83,26.24 -46.49,33.84 -18.66,7.91 -38.89,11.7 -61.35,11.7 -28.78,0 -54.07,-6.01 -76.21,-18.35 -22.14,-12.33 -39.53,-29.09 -51.87,-50.6 -12.34,-21.5 -18.66,-46.17 -18.66,-73.37 0,-27.19 6.01,-51.55 17.71,-73.37 11.7,-21.82 28.14,-38.26 48.7,-50.6 20.55,-12.33 43.95,-18.03 69.89,-18.03 25.94,0 49.01,6.01 69.58,18.03 20.57,12.02 36.68,28.78 48.38,50.28 11.7,21.5 17.4,45.86 17.4,73.69l0.01 11.39zm-202.71 -95.19c-18.34,17.08 -28.46,39.53 -30.99,67.04l197.96 0c-2.54,-27.51 -12.97,-49.97 -30.99,-67.04 -18.34,-17.08 -41.11,-25.61 -68.31,-25.61 -26.88,-0.32 -49.33,8.22 -67.67,25.61z"/>
    <path class="fil0" d="M7122.46 3531.76c-21.82,-12.02 -38.9,-29.09 -51.23,-50.6 -12.34,-21.82 -18.66,-46.17 -18.66,-73.69 0,-27.51 6.33,-51.55 18.66,-73.37 12.33,-21.5 29.41,-38.26 51.23,-50.6 21.82,-12.34 46.49,-18.03 74,-18.03 24.04,0 45.54,4.74 64.52,14.22 18.98,9.48 33.84,23.09 44.91,41.12l-28.15 18.98c-9.16,-13.92 -20.87,-24.04 -35.11,-30.99 -14.22,-6.96 -29.41,-10.43 -46.17,-10.43 -20.24,0 -38.27,4.42 -54.39,13.6 -16.13,9.16 -28.78,21.82 -37.63,38.58 -9.16,16.76 -13.6,35.42 -13.6,56.93 0,21.5 4.42,40.8 13.6,57.24 9.17,16.44 21.5,29.1 37.63,38.27 16.13,9.16 34.16,13.6 54.39,13.6 16.76,0 31.93,-3.47 46.17,-10.12 14.23,-6.64 25.93,-17.08 35.11,-30.68l28.15 18.98c-11.07,18.03 -25.93,31.62 -45.22,41.12 -19.29,9.49 -40.48,14.22 -64.2,14.22 -27.51,-0.33 -52.17,-6.34 -74,-18.36z"/>
    <polygon class="fil0" points="7569.95,3301.22 7464.33,3301.22 7464.33,3547.25 7426.69,3547.26 7426.69,3301.23 7321.06,3301.22 7321.06,3267.7 7570.26,3267.7 7570.26,3301.22 "/>
    <path class="fil0" d="M7859.31 3471.36c0,24.36 -9.17,43.32 -27.2,56.29 -18.03,13.29 -44.91,19.61 -80.64,19.61l-126.82 0 0 -279.23 123.33 -0.01c31.94,0 56.92,6.33 74.95,18.66 18.03,12.33 27.19,30.05 27.19,53.13 0,15.17 -4.11,28.15 -12.34,38.9 -8.23,10.75 -19.92,18.98 -34.79,24.04 37.32,8.85 56.3,31.62 56.3,68.61zm-198.29 -79.06l83.8 0c21.5,0 38.26,-4.11 49.65,-12.33 11.38,-8.23 17.08,-19.92 17.08,-35.74 0,-15.49 -5.69,-27.19 -17.08,-35.11 -11.39,-7.91 -28.15,-11.7 -49.65,-11.7l-83.8 0.01 0 94.87zm142.95 113.53c12.02,-7.91 18.03,-19.92 18.03,-36.68 0,-16.76 -5.38,-29.09 -16.44,-36.99 -11.07,-7.9 -28.46,-12.02 -52.18,-12.02l-92.35 -0.01 0 97.09 88.55 0c24.35,0.31 42.38,-3.47 54.4,-11.39z"/>
    <path class="fil0" d="M8191.68 3419.18l-233.71 0c2.22,29.09 13.29,52.5 33.52,70.52 20.24,18.03 45.54,26.88 76.53,26.88 17.39,0 33.2,-3.16 47.76,-9.16 14.54,-6.33 27.19,-15.18 37.63,-27.2l21.19 24.36c-12.34,14.86 -27.83,26.24 -46.49,33.84 -18.66,7.91 -38.9,11.7 -61.35,11.7 -28.78,0 -54.07,-6.01 -76.21,-18.35 -22.14,-12.33 -39.53,-29.09 -51.87,-50.6 -12.33,-21.5 -18.66,-46.17 -18.66,-73.37 0,-27.19 6.01,-51.55 17.71,-73.37 11.7,-21.82 28.15,-38.26 48.7,-50.6 20.55,-12.33 43.95,-18.03 69.89,-18.03 25.94,0 49.02,6.01 69.58,18.03 20.56,12.02 36.68,28.78 48.38,50.28 11.7,21.5 17.39,45.86 17.39,73.69l0.01 11.39zm-202.71 -95.19c-18.35,17.08 -28.47,39.53 -30.99,67.04l197.95 0c-2.53,-27.51 -12.97,-49.97 -30.98,-67.04 -18.35,-17.08 -41.12,-25.61 -68.31,-25.61 -26.89,-0.32 -49.34,8.22 -67.67,25.61z"/>
    <polygon class="fil0" points="8275.48,3268.02 8313.11,3268.02 8313.11,3391.67 8488.94,3391.67 8488.94,3268.02 8526.57,3268.02 8526.57,3547.25 8488.94,3547.26 8488.94,3423.94 8313.11,3423.92 8313.11,3547.25 8275.48,3547.26 "/>
    <polygon class="fil0" points="8634.09,3268.02 8671.72,3268.02 8671.72,3391.67 8847.55,3391.67 8847.55,3268.02 8885.19,3268.02 8885.19,3547.25 8847.55,3547.26 8847.55,3423.94 8671.72,3423.92 8671.72,3547.25 8634.09,3547.26 "/>
    <path class="fil0" d="M9172.65 3293.01c19.61,18.34 29.1,45.22 29.1,80.96l0 172.98 -36.06 0 0 -43.64c-8.53,14.54 -20.87,25.93 -37.31,33.84 -16.45,8.23 -36.06,12.34 -58.83,12.34 -31.3,0 -55.97,-7.59 -74.32,-22.45 -18.34,-14.86 -27.51,-34.47 -27.51,-58.83 0,-23.72 8.53,-42.69 25.61,-57.24 17.08,-14.54 44.59,-21.82 81.9,-21.82l88.56 0 0 -17.08c0,-24.04 -6.64,-42.37 -20.23,-55.02 -13.59,-12.65 -33.2,-18.98 -58.83,-18.98 -17.71,0 -34.79,2.84 -50.91,8.85 -16.13,6.01 -30.37,13.92 -42.07,24.04l-17.08 -28.14c14.22,-12.02 31.3,-21.19 50.91,-27.83 19.92,-6.64 40.8,-9.8 62.62,-9.8 37.01,0.64 64.84,9.8 84.45,27.83zm-42.38 212.51c15.17,-9.8 26.56,-23.72 34.16,-42.06l0 -45.54 -87.6 0.01c-47.76,0 -71.78,16.76 -71.78,49.97 0,16.44 6.33,29.09 18.66,38.58 12.34,9.49 29.73,14.22 52.18,14.22 20.86,-0.63 38.88,-5.38 54.38,-15.17z"/>
    <path class="fil0" d="M9516.73 3268.02l0 279.23 -34.47 0.01 0 -92.35 -87.6 0 -10.75 0 -64.82 92.35 -40.8 0 69.58 -97.72c-21.5,-6.01 -38.27,-16.44 -49.97,-30.68 -11.7,-14.54 -17.39,-32.89 -17.39,-55.34 0,-31.3 10.75,-55.02 31.94,-71.15 21.19,-16.13 50.28,-24.35 86.97,-24.35l117.32 0zm-118.91 158.75l84.44 0 0 -125.23 -81.91 0c-54.39,0 -81.9,21.19 -81.9,63.25 0.32,41.12 26.56,61.98 79.38,61.98z"/>
    <path class="fil0" d="M9805.76 3531.44c-21.5,-12.34 -38.58,-29.1 -50.91,-50.6 -12.34,-21.5 -18.66,-46.17 -18.66,-73.37 0,-27.2 6.33,-51.55 18.66,-73.37 12.34,-21.5 29.41,-38.26 50.91,-50.6 21.5,-12.02 45.86,-18.03 72.73,-18.03 26.88,0 51.23,6.01 72.73,18.03 21.5,12.02 38.58,28.78 50.6,50.6 12.34,21.5 18.34,46.17 18.34,73.37 0,27.19 -6.01,51.55 -18.34,73.37 -12.34,21.5 -29.1,38.58 -50.6,50.6 -21.5,12.33 -45.86,18.34 -72.73,18.34 -26.88,0 -51.23,-6.01 -72.73,-18.34zm126.19 -28.46c15.81,-9.17 28.14,-21.82 36.99,-38.58 8.85,-16.76 13.29,-35.42 13.29,-56.92 0,-21.5 -4.42,-40.17 -13.29,-56.92 -8.86,-16.76 -21.19,-29.42 -36.99,-38.58 -15.81,-9.17 -33.52,-13.6 -53.45,-13.6 -19.92,0 -37.63,4.42 -53.45,13.6 -15.82,9.18 -28.14,21.82 -36.99,38.58 -9.17,16.76 -13.6,35.42 -13.6,56.92 0,21.5 4.42,40.16 13.6,56.92 9.16,16.76 21.5,29.41 36.99,38.58 15.81,9.16 33.52,13.6 53.45,13.6 19.93,0 37.64,-4.74 53.45,-13.6z"/>
    <path class="fil0" d="M10316.18 3283.51c21.19,12.02 37.95,28.46 49.97,50.28 12.02,21.5 18.03,46.17 18.03,73.69 0,27.83 -6.01,52.81 -18.03,74.32 -12.02,21.5 -28.46,38.26 -49.65,50.28 -21.19,12.02 -44.91,17.71 -71.47,17.71 -22.77,0 -43,-4.74 -61.35,-14.22 -18.34,-9.48 -33.2,-23.09 -44.91,-41.12l0 155.59 -37.64 0 0 -382.33 36.05 0 0 55.34c11.38,-18.35 26.24,-32.57 44.91,-42.37 18.66,-9.8 39.53,-14.86 62.93,-14.86 25.94,0 49.65,5.99 71.16,17.7zm-20.88 219.47c15.81,-9.17 28.46,-21.82 37.31,-38.58 9.16,-16.76 13.6,-35.42 13.6,-56.92 0,-21.5 -4.42,-40.17 -13.6,-56.61 -9.17,-16.44 -21.5,-29.41 -37.31,-38.58 -15.81,-9.16 -33.52,-13.92 -53.14,-13.92 -19.92,0 -37.63,4.74 -53.45,13.92 -15.82,9.18 -28.15,22.14 -37.31,38.58 -9.17,16.44 -13.6,35.42 -13.6,56.61 0,21.18 4.42,40.16 13.6,56.92 9.16,16.76 21.5,29.41 37.31,38.58 15.81,9.16 33.52,13.6 53.45,13.6 19.61,0 37.32,-4.74 53.14,-13.6z"/>
    <polygon class="fil0" points="10662.77,3301.22 10503.06,3301.22 10503.06,3547.25 10465.44,3547.26 10465.44,3268.03 10663.08,3268.02 10663.08,3301.22 "/>
    <path class="fil0" d="M10897.41 3293.01c19.61,18.34 29.09,45.22 29.09,80.96l0 172.98 -36.04 0 0 -43.64c-8.53,14.54 -20.87,25.93 -37.31,33.84 -16.44,8.23 -36.06,12.34 -58.82,12.34 -31.3,0 -55.97,-7.59 -74.32,-22.45 -18.35,-14.86 -27.51,-34.47 -27.51,-58.83 0,-23.72 8.53,-42.69 25.61,-57.24 17.08,-14.54 44.59,-21.82 81.9,-21.82l88.56 0 0 -17.08c0,-24.04 -6.64,-42.37 -20.24,-55.02 -13.59,-12.65 -33.2,-18.98 -58.82,-18.98 -17.71,0 -34.79,2.84 -50.92,8.85 -16.13,6.01 -30.36,13.92 -42.06,24.04l-17.08 -28.14c14.22,-12.02 31.3,-21.19 50.92,-27.83 19.92,-6.64 40.8,-9.8 62.62,-9.8 37.01,0.64 65.15,9.8 84.44,27.83zm-42.37 212.51c15.17,-9.8 26.56,-23.72 34.15,-42.06l0 -45.54 -87.6 0.01c-47.76,0 -71.78,16.76 -71.78,49.97 0,16.44 6.33,29.09 18.66,38.58 12.33,9.49 29.73,14.22 52.18,14.22 20.87,-0.63 39.21,-5.38 54.39,-15.17z"/>
    <polygon class="fil0" points="11027.07,3268.02 11064.72,3268.02 11064.72,3391.67 11240.54,3391.67 11240.54,3268.02 11278.17,3268.02 11278.17,3547.25 11240.54,3547.26 11240.54,3423.94 11064.72,3423.92 11064.72,3547.25 11027.07,3547.26 "/>
    <polygon class="fil0" points="11385.7,3268.02 11423.33,3268.02 11423.33,3490.02 11609.59,3268.02 11643.11,3268.02 11643.11,3547.25 11605.48,3547.26 11605.48,3325.26 11419.53,3547.26 11385.38,3547.26 11385.38,3268.02 "/>
    <path class="fil0" d="M11927.1 3425.51c10.75,11.39 16.13,24.99 16.13,41.43 0,16.44 -5.69,30.68 -16.76,43.64 -11.06,12.96 -26.24,22.45 -45.54,29.41 -18.98,6.96 -40.16,10.43 -63.25,10.43 -20.24,0 -40.17,-2.84 -59.45,-8.85 -19.61,-5.69 -36.37,-14.54 -50.92,-25.61l12.65 -28.15c12.65,9.49 27.51,17.08 44.59,22.45 17.08,5.38 34.16,7.91 51.55,7.91 25.93,0 47.12,-4.74 63.57,-14.54 16.44,-9.8 24.67,-22.77 24.67,-39.53 0,-14.86 -6.64,-26.56 -20.24,-34.79 -13.6,-8.23 -31.94,-12.34 -55.34,-12.34l-47.77 -0.01 0 -27.51 45.54 0c20.87,0 37.63,-4.11 50.6,-12.02 12.97,-7.91 18.98,-18.66 18.98,-32.25 0,-14.86 -7.28,-26.56 -21.5,-35.11 -14.22,-8.53 -32.89,-12.65 -55.97,-12.65 -30.05,0 -59.77,7.59 -89.18,22.77l-10.75 -29.09c33.2,-17.4 67.67,-25.93 103.73,-25.93 21.19,0 40.48,3.16 57.56,9.17 17.08,6.33 30.68,14.86 40.48,26.24 9.8,11.39 14.54,24.36 14.54,39.21 0,14.22 -4.74,26.56 -14.54,37.63 -9.8,11.07 -23.09,18.98 -39.53,24.36 19.89,4.44 35.4,12.65 46.15,23.72z"/>
    <path class="fil0" d="M12208.87 3293.01c19.61,18.34 29.1,45.22 29.1,80.96l0 172.98 -36.06 0 0 -43.64c-8.53,14.54 -20.87,25.93 -37.31,33.84 -16.44,8.23 -36.06,12.34 -58.83,12.34 -31.3,0 -55.97,-7.59 -74.32,-22.45 -18.34,-14.86 -27.51,-34.47 -27.51,-58.83 0,-23.72 8.53,-42.69 25.61,-57.24 17.08,-14.54 44.59,-21.82 81.9,-21.82l88.56 0 0 -17.08c0,-24.04 -6.64,-42.37 -20.23,-55.02 -13.59,-12.65 -33.2,-18.98 -58.83,-18.98 -17.71,0 -34.79,2.84 -50.91,8.85 -16.13,6.01 -30.37,13.92 -42.07,24.04l-17.08 -28.14c14.22,-12.02 31.3,-21.19 50.91,-27.83 19.92,-6.64 40.8,-9.8 62.62,-9.8 37.01,0.64 64.84,9.8 84.45,27.83zm-42.38 212.51c15.17,-9.8 26.56,-23.72 34.16,-42.06l0 -45.54 -87.59 0.01c-47.76,0 -71.78,16.76 -71.78,49.97 0,16.44 6.33,29.09 18.66,38.58 12.34,9.49 29.73,14.22 52.18,14.22 20.86,-0.63 38.88,-5.38 54.38,-15.17z"/>
    <polygon class="fil0" points="12629.46,3514.37 12629.46,3617.46 12594.04,3617.46 12594.04,3547.25 12338.53,3547.26 12338.53,3268.03 12376.16,3268.02 12376.16,3514.37 12546.61,3514.37 12546.61,3268.02 12584.24,3268.02 12584.24,3514.37 "/>
    <polygon class="fil0" points="12701.56,3268.02 12739.2,3268.02 12739.2,3490.02 12925.47,3268.02 12958.99,3268.02 12958.99,3547.25 12921.35,3547.26 12921.35,3325.26 12735.4,3547.26 12701.25,3547.26 12701.25,3268.02 "/>
    <path class="fil0" d="M13281.55 3268.02l0 279.23 -34.47 0.01 0 -92.35 -87.59 0 -10.75 0 -64.82 92.35 -40.8 0 69.58 -97.72c-21.5,-6.01 -38.26,-16.44 -49.97,-30.68 -11.7,-14.54 -17.39,-32.89 -17.39,-55.34 0,-31.3 10.75,-55.02 31.94,-71.15 21.19,-16.13 50.28,-24.35 86.97,-24.35l117.31 0zm-118.91 158.75l84.44 0 0 -125.23 -81.9 0c-54.39,0 -81.9,21.19 -81.9,63.25 0.31,41.12 26.56,61.98 79.36,61.98z"/>
    <path class="fil0" d="M13774.89 3447.96l-207.14 0 -44.59 99.29 -40.8 0.01 169.82 -371.9 38.9 0 169.82 371.9 -41.43 0 -44.59 -99.31zm-14.24 -31.94l-89.18 -199.55 -89.18 199.55 178.36 0z"/>
    <path class="fil0" d="M13963.36 3531.76c-21.82,-12.02 -38.9,-29.09 -51.23,-50.6 -12.34,-21.82 -18.66,-46.17 -18.66,-73.69 0,-27.51 6.33,-51.55 18.66,-73.37 12.33,-21.5 29.41,-38.26 51.23,-50.6 21.82,-12.34 46.49,-18.03 74,-18.03 24.04,0 45.54,4.74 64.52,14.22 18.98,9.48 33.84,23.09 44.91,41.12l-28.15 18.98c-9.16,-13.92 -20.87,-24.04 -35.11,-30.99 -14.22,-6.96 -29.41,-10.43 -46.17,-10.43 -20.23,0 -38.26,4.42 -54.39,13.6 -16.13,9.16 -28.78,21.82 -37.63,38.58 -9.16,16.76 -13.6,35.42 -13.6,56.93 0,21.5 4.42,40.8 13.6,57.24 9.17,16.44 21.5,29.1 37.63,38.27 16.13,9.16 34.16,13.6 54.39,13.6 16.76,0 31.94,-3.47 46.17,-10.12 14.22,-6.64 25.93,-17.08 35.11,-30.68l28.15 18.98c-11.07,18.03 -25.93,31.62 -45.22,41.12 -19.29,9.49 -40.48,14.22 -64.2,14.22 -27.51,-0.33 -52.49,-6.34 -74,-18.36z"/>
    <path class="fil0" d="M14257.46 3531.76c-21.82,-12.02 -38.9,-29.09 -51.23,-50.6 -12.34,-21.82 -18.66,-46.17 -18.66,-73.69 0,-27.51 6.33,-51.55 18.66,-73.37 12.33,-21.5 29.41,-38.26 51.23,-50.6 21.82,-12.34 46.49,-18.03 74,-18.03 24.04,0 45.54,4.74 64.52,14.22 18.98,9.48 33.84,23.09 44.91,41.12l-28.15 18.98c-9.16,-13.92 -20.87,-24.04 -35.11,-30.99 -14.22,-6.96 -29.41,-10.43 -46.17,-10.43 -20.24,0 -38.27,4.42 -54.39,13.6 -16.13,9.16 -28.78,21.82 -37.63,38.58 -9.16,16.76 -13.6,35.42 -13.6,56.93 0,21.5 4.42,40.8 13.6,57.24 9.17,16.44 21.5,29.1 37.63,38.27 16.13,9.16 34.16,13.6 54.39,13.6 16.76,0 31.93,-3.47 46.17,-10.12 14.23,-6.64 25.93,-17.08 35.11,-30.68l28.15 18.98c-11.07,18.03 -25.93,31.62 -45.22,41.12 -19.29,9.49 -40.48,14.22 -64.2,14.22 -27.51,-0.33 -52.18,-6.34 -74,-18.36z"/>
    <path class="fil0" d="M14551.57 3531.44c-21.5,-12.34 -38.58,-29.1 -50.92,-50.6 -12.33,-21.5 -18.66,-46.17 -18.66,-73.37 0,-27.2 6.33,-51.55 18.66,-73.37 12.34,-21.5 29.42,-38.26 50.92,-50.6 21.5,-12.02 45.86,-18.03 72.73,-18.03 26.88,0 51.23,6.01 72.73,18.03 21.5,12.02 38.58,28.78 50.6,50.6 12.34,21.5 18.35,46.17 18.35,73.37 0,27.19 -6.01,51.55 -18.35,73.37 -12.33,21.5 -29.09,38.58 -50.6,50.6 -21.5,12.33 -45.86,18.34 -72.73,18.34 -26.88,0 -51.23,-6.01 -72.73,-18.34zm125.87 -28.46c15.81,-9.17 28.15,-21.82 37,-38.58 8.85,-16.76 13.29,-35.42 13.29,-56.92 0,-21.5 -4.42,-40.17 -13.29,-56.92 -8.86,-16.76 -21.19,-29.42 -37,-38.58 -15.81,-9.17 -33.52,-13.6 -53.45,-13.6 -19.92,0 -37.63,4.42 -53.45,13.6 -15.82,9.18 -28.15,21.82 -37,38.58 -9.16,16.76 -13.6,35.42 -13.6,56.92 0,21.5 4.42,40.16 13.6,56.92 9.17,16.76 21.5,29.41 37,38.58 15.81,9.16 33.52,13.6 53.45,13.6 19.93,0 37.95,-4.74 53.45,-13.6z"/>
    <polygon class="fil0" points="15137.88,3514.37 15137.88,3617.46 15102.46,3617.46 15102.46,3547.25 14846.94,3547.26 14846.94,3268.03 14884.57,3268.02 14884.57,3514.37 15055.03,3514.37 15055.03,3268.02 15092.66,3268.02 15092.66,3514.37 "/>
    <polygon class="fil0" points="15209.98,3268.02 15247.61,3268.02 15247.61,3490.02 15433.87,3268.02 15467.39,3268.02 15467.39,3547.25 15429.76,3547.26 15429.76,3325.26 15243.81,3547.26 15209.66,3547.26 15209.66,3268.02 "/>
    <path class="fil0" d="M15755.49 3293.01c19.61,18.34 29.1,45.22 29.1,80.96l0 172.98 -36.04 0 0 -43.64c-8.53,14.54 -20.87,25.93 -37.31,33.84 -16.45,8.23 -36.06,12.34 -58.83,12.34 -31.3,0 -55.97,-7.59 -74.32,-22.45 -18.34,-14.86 -27.51,-34.47 -27.51,-58.83 0,-23.72 8.53,-42.69 25.61,-57.24 17.08,-14.54 44.59,-21.82 81.9,-21.82l88.56 0 0 -17.08c0,-24.04 -6.64,-42.37 -20.23,-55.02 -13.59,-12.65 -33.2,-18.98 -58.83,-18.98 -17.71,0 -34.79,2.84 -50.91,8.85 -16.13,6.01 -30.37,13.92 -42.07,24.04l-17.08 -28.14c14.22,-12.02 31.3,-21.19 50.91,-27.83 19.92,-6.64 40.8,-9.8 62.62,-9.8 37.01,0.64 64.84,9.8 84.44,27.83zm-42.69 212.51c15.17,-9.8 26.56,-23.72 34.16,-42.06l0 -45.54 -87.6 0.01c-47.76,0 -71.78,16.76 -71.78,49.97 0,16.44 6.33,29.09 18.66,38.58 12.34,9.49 29.73,14.22 52.18,14.22 21.18,-0.63 39.21,-5.38 54.39,-15.17z"/>
    <polygon class="fil0" points="16176.1,3514.37 16176.1,3617.46 16140.67,3617.46 16140.67,3547.25 15885.15,3547.26 15885.15,3268.03 15922.79,3268.02 15922.79,3514.37 16093.23,3514.37 16093.23,3268.02 16130.87,3268.02 16130.87,3514.37 "/>
    <polygon class="fil0" points="16248.19,3268.02 16285.82,3268.02 16285.82,3490.02 16472.09,3268.02 16505.61,3268.02 16505.61,3547.25 16467.98,3547.26 16467.98,3325.26 16282.04,3547.26 16247.88,3547.26 16247.88,3268.02 "/>
    <path class="fil0" d="M16828.18 3268.02l0 279.23 -34.47 0.01 0 -92.35 -87.59 0 -10.75 0 -64.82 92.35 -40.81 0 69.58 -97.72c-21.5,-6.01 -38.26,-16.44 -49.97,-30.68 -11.7,-14.54 -17.39,-32.89 -17.39,-55.34 0,-31.3 10.75,-55.02 31.94,-71.15 21.19,-16.13 50.28,-24.35 86.97,-24.35l117.32 0zm-118.91 158.75l84.44 0 0 -125.23 -81.9 0c-54.39,0 -81.9,21.19 -81.9,63.25 0.3,41.12 26.55,61.98 79.36,61.98z"/>
    <polygon class="fil0" points="5456.2,3905.24 5493.83,3905.24 5493.83,4028.89 5669.66,4028.89 5669.66,3905.24 5707.3,3905.24 5707.3,4184.48 5669.66,4184.48 5669.66,4061.14 5493.83,4061.14 5493.83,4184.48 5456.2,4184.48 "/>
    <path class="fil0" d="M6058.95 4056.72l-233.69 0c2.22,29.1 13.29,52.5 33.52,70.21 20.24,18.03 45.54,26.88 76.52,26.88 17.4,0 33.2,-3.16 47.76,-9.17 14.56,-6.01 27.19,-15.17 37.63,-27.51l21.18 24.36c-12.33,14.86 -27.83,26.24 -46.49,34.16 -18.66,7.91 -38.9,11.7 -61.35,11.7 -28.78,0 -54.07,-6.01 -76.21,-18.34 -22.14,-12.34 -39.53,-29.1 -51.87,-50.6 -12.33,-21.5 -18.66,-46.17 -18.66,-73.37 0,-27.2 6.01,-51.55 17.71,-73.37 12.02,-21.5 28.15,-38.27 48.7,-50.28 20.87,-12.02 43.95,-18.03 69.89,-18.03 25.94,0 49.02,6.01 69.58,18.03 20.55,12.02 36.68,28.78 48.38,50.28 11.7,21.5 17.39,45.86 17.39,73.68l0 11.37zm-202.71 -95.5c-18.34,17.08 -28.46,39.53 -30.98,67.04l197.97 0c-2.53,-27.51 -12.97,-49.96 -30.98,-67.04 -18.35,-17.08 -41.12,-25.61 -68.31,-25.61 -26.89,0 -49.34,8.53 -67.69,25.61z"/>
    <polygon class="fil0" points="6393.54,3905.24 6393.54,4184.48 6355.9,4184.48 6355.9,3938.45 6180.71,3938.45 6180.71,4184.48 6143.07,4184.48 6143.07,3905.24 "/>
    <path class="fil0" d="M6715.79 3920.74c21.19,12.02 37.95,28.46 49.97,50.28 12.02,21.82 18.03,46.17 18.03,73.69 0,27.83 -6.01,52.82 -18.03,74.32 -12.02,21.5 -28.46,38.27 -49.65,50.28 -21.19,12.02 -44.91,17.71 -71.47,17.71 -22.77,0 -43,-4.74 -61.35,-13.92 -18.34,-9.48 -33.2,-23.09 -44.91,-41.11l0 155.58 -37.64 0.01 0 -382.33 36.05 0 0 55.34c11.38,-18.35 26.24,-32.57 44.91,-42.37 18.66,-9.8 39.53,-14.86 62.93,-14.86 26.26,-0.33 49.97,5.68 71.16,17.38zm-20.56 219.47c15.81,-9.17 28.46,-21.82 37.31,-38.58 9.17,-16.76 13.6,-35.74 13.6,-56.92 0,-21.19 -4.42,-40.16 -13.6,-56.61 -9.16,-16.44 -21.5,-29.41 -37.31,-38.58 -15.81,-9.17 -33.52,-13.92 -53.13,-13.92 -19.92,0 -37.63,4.74 -53.45,13.92 -15.82,9.18 -28.14,22.14 -37.31,38.58 -9.16,16.44 -13.6,35.42 -13.6,56.61 0,21.19 4.42,40.17 13.6,56.92 9.17,16.76 21.5,29.41 37.31,38.58 15.81,9.17 33.52,13.6 53.45,13.6 19.29,0 37.01,-4.42 53.13,-13.6z"/>
    <path class="fil0" d="M6907.43 4168.98c-21.5,-12.34 -38.58,-29.1 -50.92,-50.6 -12.34,-21.5 -18.66,-46.17 -18.66,-73.37 0,-27.19 6.33,-51.55 18.66,-73.37 12.34,-21.5 29.41,-38.26 50.92,-50.28 21.5,-12.02 45.86,-18.03 72.73,-18.03 26.88,0 51.23,6.01 72.73,18.03 21.5,12.02 38.58,28.78 50.6,50.28 12.34,21.5 18.34,46.17 18.34,73.37 0,27.19 -6.01,51.55 -18.34,73.37 -12.34,21.5 -29.09,38.58 -50.6,50.6 -21.5,12.34 -45.86,18.34 -72.73,18.34 -26.89,0 -50.92,-6.33 -72.73,-18.34zm126.17 -28.78c15.81,-9.17 28.14,-21.82 36.99,-38.58 8.85,-16.76 13.29,-35.74 13.29,-56.92 0,-21.19 -4.42,-40.16 -13.29,-56.92 -8.85,-16.76 -21.18,-29.41 -36.99,-38.58 -15.81,-9.17 -33.52,-13.6 -53.45,-13.6 -19.92,0 -37.63,4.42 -53.45,13.6 -15.81,9.17 -28.14,21.82 -36.99,38.58 -9.17,16.76 -13.6,35.74 -13.6,56.92 0,21.19 4.42,40.17 13.6,56.92 9.17,16.76 21.5,29.41 36.99,38.58 15.81,9.17 33.52,13.6 53.45,13.6 19.93,0 37.64,-4.42 53.45,-13.6z"/>
    <path class="fil0" d="M7496.9 4146.85c-28.78,24.67 -69.26,38.26 -121.75,40.48l0 100.25 -36.69 0 0 -99.93c-52.18,-2.22 -92.35,-15.81 -120.81,-40.48 -28.46,-24.67 -42.69,-59.14 -42.69,-102.78 0,-43.32 14.22,-76.84 42.69,-101.51 28.46,-24.67 68.63,-37.63 120.81,-39.85l0 -112.58 36.69 0 0 112.58c52.5,2.54 92.97,15.81 121.75,40.48 28.78,24.67 43,58.19 43,100.88 0.31,43.65 -14.22,77.8 -43,102.47zm-252.36 -24.36c21.5,18.66 52.82,29.41 94.24,31.94l0 -217.88c-41.12,2.22 -72.42,12.33 -93.92,30.98 -21.5,18.66 -32.25,44.27 -32.25,76.84 -0.32,33.21 10.43,59.15 31.94,78.12zm225.8 0.32c21.82,-18.66 32.57,-44.91 32.57,-78.74 0,-32.89 -10.75,-58.51 -32.57,-76.84 -21.82,-18.33 -53.45,-28.78 -94.87,-30.68l0 217.88c41.42,-2.21 73.05,-12.64 94.87,-31.62z"/>
    <path class="fil0" d="M7864.05 4056.72l-233.71 0c2.22,29.1 13.29,52.5 33.52,70.21 20.23,18.03 45.54,26.88 76.52,26.88 17.39,0 33.2,-3.16 47.76,-9.17 14.55,-6.01 27.19,-15.17 37.63,-27.51l21.19 24.36c-12.34,14.86 -27.83,26.24 -46.49,34.16 -18.66,7.91 -38.89,11.7 -61.35,11.7 -28.78,0 -54.07,-6.01 -76.21,-18.34 -22.14,-12.34 -39.53,-29.1 -51.87,-50.6 -12.34,-21.5 -18.66,-46.17 -18.66,-73.37 0,-27.2 6.01,-51.55 17.71,-73.37 12.02,-21.5 28.14,-38.27 48.69,-50.28 20.87,-12.02 43.95,-18.03 69.9,-18.03 25.94,0 49.01,6.01 69.58,18.03 20.55,12.02 36.68,28.78 48.38,50.28 11.7,21.5 17.39,45.86 17.39,73.68l0.01 11.37zm-202.71 -95.5c-18.34,17.08 -28.46,39.53 -30.99,67.04l197.96 0c-2.54,-27.51 -12.97,-49.96 -30.99,-67.04 -18.34,-17.08 -41.11,-25.61 -68.31,-25.61 -26.88,0 -49.33,8.53 -67.67,25.61z"/>
    <path class="fil0" d="M7990.54 4169.3c-21.82,-12.02 -38.89,-29.1 -51.23,-50.6 -12.34,-21.82 -18.66,-46.17 -18.66,-73.69 0,-27.19 6.33,-51.55 18.66,-73.37 12.34,-21.5 29.41,-38.26 51.23,-50.28 21.82,-12.02 46.49,-18.03 74,-18.03 24.04,0 45.54,4.74 64.52,14.22 18.98,9.48 33.84,23.09 44.91,41.12l-28.14 18.98c-9.17,-13.92 -20.87,-24.04 -35.11,-30.99 -14.22,-6.96 -29.42,-10.43 -46.17,-10.43 -20.24,0 -38.26,4.42 -54.39,13.6 -16.13,9.17 -28.78,21.82 -37.63,38.58 -9.17,16.76 -13.6,35.74 -13.6,56.92 0,21.5 4.42,40.8 13.6,57.24 9.16,16.44 21.5,29.1 37.63,38.26 16.13,9.17 34.16,13.6 54.39,13.6 16.76,0 31.94,-3.47 46.17,-10.12 14.22,-6.64 25.93,-17.08 35.11,-30.68l28.14 18.98c-11.07,18.03 -25.93,31.62 -45.22,41.11 -18.98,9.49 -40.48,13.92 -64.2,13.92 -27.51,-0.34 -52.17,-6.35 -74,-18.37z"/>
    <path class="fil0" d="M8284.96 4169.3c-21.82,-12.02 -38.9,-29.1 -51.23,-50.6 -12.34,-21.82 -18.66,-46.17 -18.66,-73.69 0,-27.19 6.33,-51.55 18.66,-73.37 12.33,-21.5 29.41,-38.26 51.23,-50.28 21.82,-12.02 46.49,-18.03 74,-18.03 24.04,0 45.54,4.74 64.52,14.22 18.98,9.48 33.84,23.09 44.91,41.12l-28.15 18.98c-9.16,-13.92 -20.87,-24.04 -35.11,-30.99 -14.22,-6.96 -29.41,-10.43 -46.17,-10.43 -20.24,0 -38.27,4.42 -54.39,13.6 -16.13,9.17 -28.78,21.82 -37.63,38.58 -9.16,16.76 -13.6,35.74 -13.6,56.92 0,21.5 4.42,40.8 13.6,57.24 9.17,16.44 21.5,29.1 37.63,38.26 16.13,9.17 34.16,13.6 54.39,13.6 16.76,0 31.93,-3.47 46.17,-10.12 14.23,-6.64 25.93,-17.08 35.11,-30.68l28.15 18.98c-11.07,18.03 -25.93,31.62 -45.22,41.11 -18.98,9.49 -40.48,13.92 -64.2,13.92 -27.51,-0.34 -52.18,-6.35 -74,-18.37z"/>
    <polygon class="fil0" points="8541.13,3905.24 8578.75,3905.24 8578.75,4127.25 8765.02,3905.24 8798.54,3905.24 8798.54,4184.48 8760.91,4184.48 8760.91,3962.47 8574.96,4184.48 8540.81,4184.48 8540.81,3905.24 "/>
    <path class="fil0" d="M8949.07 4168.98c-21.5,-12.34 -38.58,-29.1 -50.92,-50.6 -12.33,-21.5 -18.66,-46.17 -18.66,-73.37 0,-27.19 6.33,-51.55 18.66,-73.37 12.34,-21.5 29.42,-38.26 50.92,-50.28 21.5,-12.02 45.86,-18.03 72.73,-18.03 26.88,0 51.23,6.01 72.73,18.03 21.5,12.02 38.58,28.78 50.6,50.28 12.34,21.5 18.35,46.17 18.35,73.37 0,27.19 -6.01,51.55 -18.35,73.37 -12.33,21.5 -29.09,38.58 -50.6,50.6 -21.5,12.34 -45.86,18.34 -72.73,18.34 -26.88,0 -51.23,-6.33 -72.73,-18.34zm126.18 -28.78c15.81,-9.17 28.14,-21.82 36.99,-38.58 8.85,-16.76 13.29,-35.74 13.29,-56.92 0,-21.19 -4.42,-40.16 -13.29,-56.92 -8.85,-16.76 -21.18,-29.41 -36.99,-38.58 -15.81,-9.17 -33.52,-13.6 -53.45,-13.6 -19.92,0 -37.63,4.42 -53.45,13.6 -15.81,9.17 -28.14,21.82 -36.99,38.58 -9.17,16.76 -13.6,35.74 -13.6,56.92 0,21.19 4.42,40.17 13.6,56.92 9.17,16.76 21.5,29.41 36.99,38.58 15.81,9.17 33.52,13.6 53.45,13.6 19.93,0 37.64,-4.42 53.45,-13.6z"/>
    <polygon class="fil0" points="9244.44,3905.24 9282.07,3905.24 9282.07,4028.89 9457.9,4028.89 9457.9,3905.24 9495.53,3905.24 9495.53,4184.48 9457.9,4184.48 9457.9,4061.14 9282.07,4061.14 9282.07,4184.48 9244.44,4184.48 "/>
    <path class="fil0" d="M9782.67 3930.55c19.61,18.34 29.09,45.22 29.09,80.96l0 172.98 -36.04 -0.01 0 -43.64c-8.53,14.54 -20.87,25.93 -37.31,34.15 -16.44,8.23 -36.06,12.34 -58.83,12.34 -31.3,0 -55.97,-7.59 -74.32,-22.45 -18.34,-14.86 -27.51,-34.47 -27.51,-58.83 0,-23.72 8.53,-42.69 25.61,-57.24 17.08,-14.54 44.59,-21.82 81.9,-21.82l88.56 0 0 -17.08c0,-24.04 -6.64,-42.37 -20.24,-55.02 -13.59,-12.65 -33.2,-18.98 -58.82,-18.98 -17.71,0 -34.79,2.84 -50.92,8.85 -16.13,6.01 -30.36,13.92 -42.07,24.04l-17.08 -28.14c14.22,-12.02 31.3,-21.19 50.92,-27.83 19.61,-6.64 40.8,-9.8 62.61,-9.8 37.01,0 65.15,9.18 84.44,27.52zm-42.37 212.19c15.17,-9.8 26.56,-23.72 34.16,-42.07l0 -45.54 -87.6 0c-47.76,0 -71.78,16.76 -71.78,49.96 0,16.13 6.33,29.1 18.66,38.58 12.34,9.48 29.73,14.22 52.18,14.22 20.87,-0.3 39.21,-5.36 54.39,-15.16z"/>
    <path class="fil0" d="M10140.66 3905.24l0 279.24 -37.64 0 0 -246.03 -133.77 0 -3.79 68.94c-2.84,58.19 -9.48,102.78 -20.24,133.77 -10.75,31.3 -29.41,46.81 -56.92,46.81 -7.59,0 -16.44,-1.27 -27.19,-4.11l2.54 -32.25c6.33,1.27 10.75,2.22 13.29,2.22 14.54,0 25.61,-6.64 32.89,-20.24 7.59,-13.29 12.33,-30.05 14.86,-49.96 2.54,-19.92 4.42,-46.17 6.33,-78.75l4.74 -99.93 204.91 -0.03 0 0.32z"/>
    <path class="fil0" d="M10448.04 4027.31c18.35,15.17 27.2,37.31 27.2,65.77 0,29.73 -9.8,52.5 -29.42,68.63 -19.61,15.81 -48.06,23.72 -85.39,23.4l-112.58 -0.63 0 -279.24 37.64 0 0 97.72 82.22 0.95c35.42,0.3 61.99,8.22 80.33,23.39zm-30.98 113.53c13.28,-10.75 19.91,-26.56 19.91,-47.44 0,-20.55 -6.64,-35.74 -19.61,-45.54 -13.29,-9.8 -32.89,-15.17 -58.82,-15.49l-72.73 -0.95 0 124.28 72.73 0.95c25.95,0 45.24,-5.06 58.52,-15.81z"/>
    <polygon class="fil0" points="10547.03,3905.24 10584.66,3905.24 10584.66,4028.89 10760.49,4028.89 10760.49,3905.24 10798.12,3905.24 10798.12,4184.48 10760.49,4184.48 10760.49,4061.14 10584.66,4061.14 10584.66,4184.48 10547.03,4184.48 "/>
    <path class="fil0" d="M11102.98 4027.31c18.34,15.17 27.51,37.31 27.51,65.77 0,29.73 -9.8,52.5 -29.73,68.63 -19.93,16.13 -48.06,23.72 -85.07,23.4l-110.36 -0.63 0 -279.24 37.63 0 0 97.72 79.69 0.95c35.42,0.3 61.98,8.22 80.33,23.39zm-30.37 113.53c13.29,-10.75 19.92,-26.56 19.92,-47.44 0,-20.55 -6.64,-35.74 -19.61,-45.54 -12.97,-9.8 -32.89,-15.17 -58.82,-15.49l-70.52 -0.95 0 124.28 70.52 0.95c25.63,0 45.25,-5.06 58.52,-15.81zm105 -235.6l37.63 0 0 279.24 -37.63 0 0 -279.24z"/>
    <polygon class="fil0" points="11497.01,4184.48 11408.47,4067.79 11319.29,4184.48 11276.91,4184.48 11387.27,4041.21 11281.97,3905.23 11324.35,3905.24 11408.15,4014.67 11491.95,3905.24 11533.38,3905.24 11428.08,4041.23 11539.71,4184.49 "/>
    <polygon class="fil0" points="11915.71,4184.48 11827.17,4067.79 11737.99,4184.48 11695.29,4184.48 11805.66,4041.21 11700.35,3905.23 11742.72,3905.24 11826.53,4014.67 11910.33,3905.24 11951.76,3905.24 11846.45,4041.23 11958.09,4184.49 "/>
    <path class="fil0" d="M12241.76 3905.24l-139.77 312.75c-11.39,26.24 -24.36,44.91 -39.22,55.66 -14.86,11.06 -32.89,16.44 -53.75,16.44 -13.6,0 -25.93,-2.22 -37.63,-6.33 -11.7,-4.11 -21.82,-10.75 -30.36,-18.98l17.39 -28.15c14.22,14.22 31.3,21.19 50.92,21.19 12.65,0 23.72,-3.47 32.57,-10.75 9.17,-6.96 17.39,-18.98 25.31,-36.06l12.34 -27.2 -124.92 -278.91 39.2 0.01 105.3 237.5 105.3 -237.5 37.32 0 0 0.32z"/>
    <path class="fil0" d="M12560.84 4151.59l0 100.24 -35.41 0.01 0 -67.36 -250.15 -0.01 0 67.36 -35.42 0.01 0 -100.24 15.81 -0.01c18.66,-0.95 31.62,-14.86 38.26,-41.43 6.64,-26.57 11.38,-63.89 13.92,-111.63l3.79 -93.6 205.88 0 0 246.35 43.32 0 0 0.32zm-228.95 -52.8c-5.06,25.61 -13.92,43.32 -26.56,52.82l174.25 -0.01 0 -212.83 -134.4 0 -3.16 61.98c-1.6,39.85 -5.07,72.42 -10.13,98.04z"/>
    <path class="fil0" d="M12676.59 4168.98c-21.5,-12.34 -38.58,-29.1 -50.91,-50.6 -12.34,-21.5 -18.66,-46.17 -18.66,-73.37 0,-27.19 6.33,-51.55 18.66,-73.37 12.33,-21.5 29.41,-38.26 50.91,-50.28 21.5,-12.02 45.86,-18.03 72.73,-18.03 26.88,0 51.23,6.01 72.73,18.03 21.5,12.02 38.58,28.78 50.6,50.28 12.33,21.5 18.34,46.17 18.34,73.37 0,27.19 -6.01,51.55 -18.34,73.37 -12.34,21.5 -29.1,38.58 -50.6,50.6 -21.5,12.34 -45.86,18.34 -72.73,18.34 -26.88,0 -50.92,-6.33 -72.73,-18.34zm126.17 -28.78c15.81,-9.17 28.15,-21.82 37,-38.58 8.85,-16.76 13.28,-35.74 13.28,-56.92 0,-21.19 -4.42,-40.16 -13.28,-56.92 -8.85,-16.76 -21.19,-29.41 -37,-38.58 -15.81,-9.17 -33.52,-13.6 -53.45,-13.6 -19.92,0 -37.63,4.42 -53.45,13.6 -15.81,9.17 -28.15,21.82 -37,38.58 -9.16,16.76 -13.6,35.74 -13.6,56.92 0,21.19 4.42,40.17 13.6,56.92 9.17,16.76 21.5,29.41 37,38.58 15.81,9.17 33.52,13.6 53.45,13.6 19.93,0 37.64,-4.42 53.45,-13.6z"/>
    <polygon class="fil0" points="13206.61,4060.21 13145.88,4060.21 13145.88,4184.49 13108.25,4184.48 13108.25,4060.19 13047.85,4060.21 12962.47,4184.49 12917.24,4184.48 13017.49,4040.59 12925.14,3905.24 12965.94,3905.24 13047.84,4027.94 13108.25,4027.94 13108.25,3905.24 13145.88,3905.24 13145.88,4027.94 13206.61,4027.94 13288.82,3905.24 13329.62,3905.24 13237.27,4041.23 13337.52,4184.49 13292.3,4184.48 "/>
    <polygon class="fil0" points="13400.45,3905.24 13438.09,3905.24 13438.09,4028.89 13613.91,4028.89 13613.91,3905.24 13651.56,3905.24 13651.56,4184.48 13613.91,4184.48 13613.91,4061.14 13438.09,4061.14 13438.09,4184.48 13400.45,4184.48 "/>
    <polygon class="fil0" points="13759.08,3905.24 13796.71,3905.24 13796.71,4127.25 13982.97,3905.24 14016.49,3905.24 14016.49,4184.48 13978.86,4184.48 13978.86,3962.47 13792.91,4184.48 13758.76,4184.48 13758.76,3905.24 "/>
    <polygon class="fil0" points="14225.85,4060.21 14161.96,4060.21 14161.96,4184.49 14124.33,4184.48 14124.33,3905.24 14161.96,3905.24 14161.96,4027.94 14226.16,4027.94 14324.52,3905.24 14365.3,3905.24 14255.26,4040.59 14373.21,4184.48 14328.63,4184.48 "/>
    <path class="fil0" d="M14465.55 4168.98c-21.5,-12.34 -38.58,-29.1 -50.91,-50.6 -12.34,-21.5 -18.66,-46.17 -18.66,-73.37 0,-27.19 6.33,-51.55 18.66,-73.37 12.34,-21.5 29.41,-38.26 50.91,-50.28 21.5,-12.02 45.86,-18.03 72.73,-18.03 26.88,0 51.23,6.01 72.73,18.03 21.5,12.02 38.58,28.78 50.6,50.28 12.34,21.5 18.34,46.17 18.34,73.37 0,27.19 -6.01,51.55 -18.34,73.37 -12.34,21.5 -29.1,38.58 -50.6,50.6 -21.5,12.34 -45.86,18.34 -72.73,18.34 -27.19,0 -51.23,-6.33 -72.73,-18.34zm125.87 -28.78c15.81,-9.17 28.14,-21.82 36.99,-38.58 8.85,-16.76 13.29,-35.74 13.29,-56.92 0,-21.19 -4.42,-40.16 -13.29,-56.92 -8.85,-16.76 -21.19,-29.41 -36.99,-38.58 -15.81,-9.17 -33.52,-13.6 -53.45,-13.6 -19.91,0 -37.63,4.42 -53.45,13.6 -15.81,9.17 -28.14,21.82 -36.99,38.58 -9.17,16.76 -13.6,35.74 -13.6,56.92 0,21.19 4.42,40.17 13.6,56.92 9.17,16.76 21.5,29.41 36.99,38.58 15.81,9.17 33.52,13.6 53.45,13.6 19.93,0 37.96,-4.42 53.45,-13.6z"/>
    <path class="fil0" d="M14995.57 4108.59c0,24.36 -9.17,43.32 -27.2,56.29 -18.03,12.97 -44.91,19.61 -80.64,19.61l-126.81 -0.01 0 -279.24 123.33 0c31.94,0 56.92,6.33 74.95,18.66 18.03,12.34 27.19,30.05 27.19,53.14 0,15.17 -4.11,28.14 -12.34,38.89 -8.23,10.75 -19.92,18.98 -34.79,24.04 37.32,8.85 56.29,31.92 56.29,68.62zm-198.29 -79.06l83.8 0c21.5,0 38.26,-4.11 49.65,-12.34 11.38,-8.23 17.08,-19.92 17.08,-35.42 0,-15.49 -5.69,-27.19 -17.08,-35.11 -11.39,-7.91 -28.15,-11.7 -49.65,-11.7l-83.8 0.01 0 94.55zm142.95 113.53c12.02,-7.91 18.03,-19.91 18.03,-36.68 0,-16.76 -5.38,-29.1 -16.45,-36.99 -11.06,-7.9 -28.46,-12.02 -52.18,-12.02l-92.35 -0.01 0 97.09 88.56 0c24.34,0.32 42.37,-3.49 54.39,-11.39z"/>
    <path class="fil0" d="M15294.73 4162.97c-30.05,-16.44 -53.45,-38.89 -70.21,-67.67 -16.76,-28.78 -25.31,-61.03 -25.31,-96.77 0,-35.74 8.53,-67.99 25.31,-96.77 16.76,-28.78 40.16,-51.23 70.21,-67.67 30.05,-16.44 63.25,-24.67 100.25,-24.67 36.68,0 69.89,8.23 99.61,24.35 29.41,16.44 52.82,38.9 69.89,67.68 17.08,28.78 25.61,61.03 25.61,96.77 0,35.74 -8.53,68 -25.61,97.09 -17.08,28.78 -40.16,51.55 -69.89,67.67 -29.41,16.44 -62.62,24.36 -99.61,24.36 -37,0.32 -70.52,-7.91 -100.25,-24.36zm179.62 -30.03c23.72,-13.29 42.37,-31.62 55.66,-55.34 13.6,-23.4 20.23,-49.96 20.23,-78.74 0,-28.78 -6.64,-55.34 -20.23,-78.74 -13.6,-23.72 -31.94,-42.07 -55.66,-55.34 -23.72,-13.27 -50.28,-19.92 -79.69,-19.92 -29.41,0 -55.97,6.64 -80.01,19.92 -24.04,13.29 -42.69,31.62 -56.29,55.34 -13.6,23.4 -20.55,49.96 -20.55,78.74 0,28.78 6.64,55.34 20.55,78.74 13.6,23.72 32.25,42.07 56.29,55.34 23.72,13.29 50.6,19.92 80.01,19.92 29.41,-0.32 55.97,-6.96 79.69,-19.92z"/>
    <path class="fil0" d="M15889.89 3920.74c21.19,12.02 37.94,28.46 49.96,50.28 12.02,21.82 18.03,46.17 18.03,73.69 0,27.83 -6.01,52.82 -18.03,74.32 -12.02,21.5 -28.46,38.27 -49.64,50.28 -21.19,12.02 -44.91,17.71 -71.47,17.71 -22.77,0 -43,-4.74 -61.35,-13.92 -18.35,-9.48 -33.2,-23.09 -44.91,-41.11l0 155.58 -37.63 0.01 0 -382.33 36.04 0 0 55.34c11.39,-18.35 26.24,-32.57 44.91,-42.37 18.66,-9.8 39.53,-14.86 62.93,-14.86 25.93,-0.33 49.64,5.68 71.15,17.38zm-20.87 219.47c15.81,-9.17 28.46,-21.82 37.31,-38.58 9.17,-16.76 13.6,-35.74 13.6,-56.92 0,-21.19 -4.42,-40.16 -13.6,-56.61 -9.17,-16.44 -21.5,-29.41 -37.31,-38.58 -15.81,-9.17 -33.52,-13.92 -53.14,-13.92 -19.92,0 -37.63,4.74 -53.45,13.92 -15.82,9.18 -28.14,22.14 -37.31,38.58 -9.17,16.44 -13.6,35.42 -13.6,56.61 0,21.19 4.42,40.17 13.6,56.92 9.17,16.76 21.5,29.41 37.31,38.58 15.81,9.17 33.52,13.6 53.45,13.6 19.61,0 37.32,-4.42 53.14,-13.6z"/>
    <path class="fil0" d="M16283.3 4056.72l-233.71 0c2.22,29.1 13.29,52.5 33.52,70.21 20.23,18.03 45.54,26.88 76.52,26.88 17.39,0 33.2,-3.16 47.76,-9.17 14.55,-6.01 27.19,-15.17 37.63,-27.51l21.19 24.36c-12.34,14.86 -27.83,26.24 -46.49,34.16 -18.66,7.91 -38.89,11.7 -61.35,11.7 -28.78,0 -54.07,-6.01 -76.21,-18.34 -22.14,-12.34 -39.53,-29.1 -51.87,-50.6 -12.34,-21.5 -18.66,-46.17 -18.66,-73.37 0,-27.2 6.01,-51.55 17.71,-73.37 12.02,-21.5 28.14,-38.27 48.69,-50.28 20.87,-12.02 43.95,-18.03 69.9,-18.03 25.94,0 49.01,6.01 69.58,18.03 20.55,12.02 36.68,28.78 48.38,50.28 11.7,21.5 17.39,45.86 17.39,73.68l0.01 11.37zm-202.71 -95.5c-18.34,17.08 -28.46,39.53 -30.99,67.04l197.96 0c-2.54,-27.51 -12.97,-49.96 -30.99,-67.04 -18.34,-17.08 -41.11,-25.61 -68.31,-25.61 -26.89,0 -49.34,8.53 -67.67,25.61z"/>
    <polygon class="fil0" points="16367.1,3905.24 16404.73,3905.24 16404.73,4028.89 16580.56,4028.89 16580.56,3905.24 16618.19,3905.24 16618.19,4184.48 16580.56,4184.48 16580.56,4061.14 16404.73,4061.14 16404.73,4184.48 16367.1,4184.48 "/>
    <path class="fil0" d="M16930.33 3929.28c20.24,11.39 36.06,27.51 47.44,48.38 11.38,20.87 17.08,44.27 17.08,70.83 0,27.19 -6.01,51.55 -17.71,72.42 -12.02,21.18 -28.46,37.31 -49.64,49.01 -21.19,11.7 -45.54,17.39 -73.37,17.39 -46.49,0 -82.22,-16.13 -107.84,-48.69 -25.61,-32.57 -38.27,-77.48 -38.27,-135.03 0,-59.77 11.39,-105.62 34.16,-137.57 22.77,-31.94 58.51,-53.45 106.89,-64.82l125.23 -28.78 6.33 34.47 -117.95 27.19c-40.17,8.85 -69.26,24.67 -88.23,47.12 -18.66,22.45 -29.1,55.66 -30.68,99.61 11.38,-21.5 27.19,-38.58 47.12,-50.6 20.24,-12.33 43.32,-18.34 69.58,-18.34 26.55,0.33 49.62,6.02 69.87,17.41zm-22.77 213.46c15.49,-9.17 27.51,-21.82 36.06,-37.95 8.54,-16.13 12.97,-34.79 12.97,-55.34 0,-20.55 -4.11,-38.58 -12.65,-54.07 -8.53,-15.49 -20.55,-27.83 -35.74,-36.37 -15.19,-8.54 -32.89,-12.97 -52.82,-12.97 -19.93,0 -37.31,4.42 -52.82,12.97 -15.5,8.54 -27.51,20.87 -36.06,36.37 -8.53,15.49 -12.97,33.52 -12.97,54.07 0,20.55 4.42,38.89 12.97,55.34 8.54,16.44 20.87,29.1 36.37,37.95 15.49,9.16 33.2,13.6 52.5,13.6 19.3,-0.01 36.69,-4.44 52.18,-13.6z"/>
    <path class="fil0" d="M17305.06 3905.24l-139.78 312.75c-11.39,26.24 -24.36,44.91 -39.21,55.66 -14.86,11.06 -32.89,16.44 -53.75,16.44 -13.6,0 -25.93,-2.22 -37.63,-6.33 -11.7,-4.11 -21.82,-10.75 -30.36,-18.98l17.39 -28.15c14.22,14.22 31.3,21.19 50.91,21.19 12.65,0 23.72,-3.47 32.57,-10.75 9.16,-6.96 17.39,-18.98 25.31,-36.06l12.33 -27.2 -124.92 -278.91 39.2 0.01 105.31 237.5 105.3 -237.5 37.32 0 0 0.32z"/>
    <path class="fil0" d="M17579.25 3920.74c21.19,12.02 37.94,28.46 49.96,50.28 12.02,21.82 18.03,46.17 18.03,73.69 0,27.83 -6.01,52.82 -18.03,74.32 -12.02,21.5 -28.46,38.27 -49.65,50.28 -21.18,12.02 -44.91,17.71 -71.46,17.71 -22.77,0 -43,-4.74 -61.35,-13.92 -18.34,-9.48 -33.2,-23.09 -44.91,-41.11l0 155.58 -37.64 0.01 0 -382.33 36.04 0 0 55.34c11.39,-18.35 26.24,-32.57 44.91,-42.37 18.66,-9.8 39.53,-14.86 62.93,-14.86 25.94,-0.33 49.64,5.68 71.16,17.38zm-20.88 219.47c15.81,-9.17 28.46,-21.82 37.31,-38.58 9.17,-16.76 13.6,-35.74 13.6,-56.92 0,-21.19 -4.42,-40.16 -13.6,-56.61 -9.17,-16.44 -21.5,-29.41 -37.31,-38.58 -15.81,-9.17 -33.52,-13.92 -53.14,-13.92 -19.92,0 -37.63,4.74 -53.45,13.92 -15.82,9.18 -28.14,22.14 -37.31,38.58 -9.17,16.44 -13.6,35.42 -13.6,56.61 0,21.19 4.42,40.17 13.6,56.92 9.17,16.76 21.5,29.41 37.31,38.58 15.81,9.17 33.52,13.6 53.45,13.6 19.61,0 37.32,-4.42 53.14,-13.6z"/>
    <polygon class="fil0" points="17963.17,4060.21 17902.44,4060.21 17902.44,4184.49 17864.81,4184.48 17864.81,4060.19 17804.41,4060.21 17719.03,4184.49 17673.81,4184.48 17774.05,4040.59 17681.7,3905.24 17722.5,3905.24 17804.4,4027.94 17864.81,4027.94 17864.81,3905.24 17902.44,3905.24 17902.44,4027.94 17963.17,4027.94 18045.38,3905.24 18086.18,3905.24 17993.84,4041.23 18094.08,4184.49 18048.86,4184.48 "/>
    <path class="fil0" d="M18356.88 4027.31c18.35,15.17 27.2,37.31 27.2,65.77 0,29.73 -9.8,52.5 -29.42,68.63 -19.61,15.81 -48.06,23.72 -85.39,23.4l-112.58 -0.63 0 -279.24 37.63 0 0 97.72 82.22 0.95c35.43,0.3 61.99,8.22 80.34,23.39zm-30.68 113.53c13.29,-10.75 19.92,-26.56 19.92,-47.44 0,-20.55 -6.64,-35.74 -19.61,-45.54 -13.29,-9.8 -32.89,-15.17 -58.82,-15.49l-72.73 -0.95 0 124.28 72.73 0.95c25.63,0 45.23,-5.06 58.52,-15.81z"/>
    <path class="fil0" d="M18649.72 3905.24l0 279.24 -34.47 0 0 -92.35 -87.6 0.01 -10.75 0 -64.82 92.35 -40.8 -0.01 69.58 -97.72c-21.5,-6.01 -38.26,-16.13 -49.96,-30.68 -11.7,-14.54 -17.39,-32.89 -17.39,-55.34 0,-31.3 10.75,-55.02 31.94,-71.15 21.18,-16.44 50.28,-24.36 86.97,-24.36l117.33 0.01zm-118.91 158.76l84.44 0 0 -125.23 -81.91 0c-54.39,0 -81.9,21.18 -81.9,63.25 0.32,41.43 26.56,61.98 79.38,61.98z"/>
   </g>
  </g>
  <g id="_2753713787776">
   <rect class="fil1" width="4707.51" height="4515.26"/>
   <g>
    <path class="fil2" d="M2288.99 4235.08c-9.28,-6.9 -10.02,-14.38 -15.56,-26.87 -4.13,-9.31 -8.13,-16.34 -12.18,-26.11l-273.09 -594.74c-32.5,-70.96 -66.26,-143.82 -98.26,-215.13 -62.04,-138.24 -138.68,-294.61 -198.77,-432.86 -46.14,-106.16 -100.46,-215.47 -148.77,-323.42 -7.62,-17.02 -46.5,-97.02 -47.32,-107.36l1027.6 0.37 55.19 117.95c16.69,38.05 35.53,79.87 53.76,116.54 33.58,67.53 74.45,162.76 107.27,233.34 18.78,40.38 36.01,78.07 54.86,117.82 32.55,68.62 75.37,170.87 107.15,233.85 7.9,15.66 7.8,15.15 -0.67,27.6l-51.97 74.45c-12.44,17.01 -23.74,34.9 -35.98,51.97l-244.79 351.14c-70.92,97.79 -139.28,204.32 -209.59,301.29 -12.18,16.8 -23.55,32.63 -34.96,50.17 -10.73,16.49 -25.96,33.79 -33.92,50zm-1099.64 -1725.88l174.19 378.73c19.14,41.89 36.84,84.44 56.92,124.44 20.62,41.08 37.99,84.29 57.74,126.35l344.98 750.66c18.44,40.91 37.03,85.42 56.79,124.71 21.2,42.16 38.54,84.01 57.82,126.2 19.15,41.92 39.18,81.93 57.23,123.89l115.59 251.09 319.4 0c83.78,-127.14 193.96,-274.9 281.01,-403.53 88.75,-131.12 190.61,-274.2 281.89,-404.71l482.26 -693.32c13.6,-19.62 27.69,-38.48 40.66,-58.21l203.49 -289.14 848.35 1846.45 137.25 0.79c0,-112 -0.09,-224.15 0.32,-336.15 0.15,-41.13 -4.57,-36.82 -17.91,-67.7 -8.11,-18.78 -16.9,-37.22 -26.11,-56.19 -9.36,-19.27 -17.39,-39.53 -26.58,-58.86l-158.37 -344.26c-39.82,-86.76 -91.64,-205.19 -131.83,-285.43l-158.37 -344.3c-9.84,-19.28 -17.75,-39 -26.7,-58.54 -8.98,-19.6 -17.97,-36.76 -26.15,-55.95 -62.73,-147.12 -146.09,-308.86 -210.22,-457.36 -24.44,-56.59 -33.38,-34.33 19.7,-107.37 92.25,-126.95 183.05,-267.19 275,-395.18 47.13,-65.6 89.16,-130.69 136.55,-195.71l68.83 -98.72c21.88,-32.74 46.02,-64.95 68.81,-98.68 22.31,-33.01 46.99,-66.59 68.64,-99.03 11.91,-17.84 22.88,-32.61 35.07,-49.94l102.69 -147.27c12.27,-17.02 6.68,-54.25 6.68,-78.7l0.42 -373.53c0.01,-10 2.2,-30.44 -2.82,-39.06 -28.23,45.93 -84.11,120.95 -117.22,169.64 -19.91,29.29 -38.69,53.87 -58.74,84.04 -54.59,82.11 -123.72,173.07 -175.92,252.54 -70.03,106.62 -162.24,228.27 -233.31,335.21l-291.91 419.47c-20.19,28.22 -39.33,55.28 -57.55,82.11l-61.32 -129.85c-18.95,-43.95 -39.67,-88.92 -60.56,-131.77 -38.44,-78.87 -83.26,-182.9 -120.93,-263.74 -20.35,-43.65 -41.45,-86.75 -60.75,-131.41 -19.41,-44.9 -41.18,-85.63 -60.7,-131.45 -18.87,-44.29 -39.81,-87.76 -60.62,-131.64 -39.66,-83.62 -81.91,-182.87 -120.93,-263.78 -20.54,-42.59 -41.65,-88 -60.69,-131.49 -38.36,-87.59 -81.22,-175.83 -121.36,-263.01 -19.78,-42.96 -39.62,-90.61 -60.52,-131.83 -21.78,-42.95 -39.35,-89.39 -60.45,-131.91 -21.55,-43.43 -41.02,-87.66 -60.63,-131.59 -19.89,-44.56 -42.32,-86.63 -60.94,-132.03l-303.73 -0.76 46.43 102.31c16.58,32.55 30.27,67.27 45.69,100.03 31.58,67.11 62.5,131.69 91.84,199.11 14.65,33.66 30.95,64.76 45.89,99.61 14.45,33.71 31.81,65.24 45.97,99.48l275.11 598.55c42.64,96.59 94.68,200.69 137.83,298.61 72.48,164.48 154.24,335.12 229.18,498.97 42.82,93.62 97.68,205.43 137.77,298.66 36.01,83.73 42.03,65.69 20.08,96.25 -41.39,57.61 -78.15,114.41 -119.28,171.99 -40.83,57.16 -80.7,113.36 -119.6,171.48 -74.65,111.5 -161.87,231.22 -239.25,343.02 -15.41,-30.11 -31.35,-63.46 -44.76,-95.71 -13.21,-31.77 -29.06,-63.23 -44.3,-95.77 -30.23,-64.56 -59.22,-128.39 -88.05,-192.37l-399.16 -866.97c-44.11,-88.33 -87.36,-194.92 -132.59,-287.4 -31.01,-63.4 -58.17,-131.26 -88.97,-194.16l-88.51 -191.29c-37.22,-88.29 -91.49,-196.47 -132.25,-288.22l-177.45 -385.67c-44.29,-91.52 -87.81,-191.55 -132.72,-287.16l-87.35 -193.29 -305.05 -0.63 1024.66 2230.62 -1027.87 0.02 -1025.12 -2232.47 -158.08 0c-14.09,6.72 -118.4,2.01 -143.72,2.01 7.07,21.65 21.77,51.78 31.82,71.56 11.48,22.61 21.11,47.74 31.92,69.73l96.02 208.66c10.23,23.37 21.81,45.43 31.86,69.81 19.26,46.7 43.42,92.33 63.86,139.52l95.8 209.23c31.39,66.11 65.84,147.58 96.18,208.41 11.13,22.31 20.52,46.71 31.89,69.79l64.04 139.08c10.49,23.45 21.79,46.1 31.88,69.75 35.17,82.43 88.96,194.69 127.67,279.09 38.03,82.9 89.6,201.3 128.04,278.31l64.04 138.99c27.91,62.51 70.48,148.54 95.79,209.18 9.6,23.01 22.44,45.97 31.29,69.81l-1060.18 0.01 -0.18 275.71 1187.43 0.55z"/>
    <polygon class="fil3" points="1370.29,1.83 1369.29,0 341.97,0 1367.08,2232.47 2394.95,2232.45 "/>
    <path class="fil4" d="M1370.29 1.83l305.05 0.63 87.35 193.29c44.92,95.61 88.44,195.64 132.72,287.16l177.45 385.67c40.76,91.76 95.02,199.93 132.25,288.22l88.51 191.29c30.79,62.9 57.96,130.76 88.97,194.16 45.23,92.48 88.48,199.07 132.59,287.4l399.16 866.97c28.83,63.97 57.82,127.81 88.05,192.37 15.24,32.54 31.09,64 44.3,95.77 13.41,32.25 29.35,65.59 44.76,95.71 77.38,-111.8 164.61,-231.53 239.25,-343.02 38.9,-58.11 78.77,-114.32 119.6,-171.48 41.14,-57.58 77.9,-114.38 119.28,-171.99 21.96,-30.56 15.93,-12.52 -20.08,-96.25 -40.1,-93.23 -94.96,-205.04 -137.77,-298.66 -74.94,-163.85 -156.7,-334.49 -229.18,-498.97 -43.15,-97.92 -95.19,-202.02 -137.83,-298.61l-275.11 -598.55c-14.17,-34.23 -31.52,-65.77 -45.97,-99.48 -14.94,-34.85 -31.25,-65.96 -45.89,-99.61 -29.34,-67.43 -60.26,-132 -91.84,-199.11 -15.42,-32.76 -29.11,-67.48 -45.69,-100.03l-46.43 -102.31 303.73 0.76 -0.73 -3.17 -1427.5 0 1 1.83z"/>
    <path class="fil3" d="M2430.02 4515.26l2138.01 0 -0.35 -2.46 -848.35 -1846.45 -203.49 289.14c-12.97,19.73 -27.06,38.59 -40.66,58.21l-482.26 693.32c-91.28,130.5 -193.14,273.58 -281.89,404.71 -87.05,128.63 -197.23,276.39 -281.01,403.53z"/>
    <path class="fil5" d="M2288.99 4235.08c7.96,-16.22 23.19,-33.51 33.92,-50 11.41,-17.54 22.78,-33.37 34.96,-50.17 70.31,-96.97 138.67,-203.5 209.59,-301.29l244.79 -351.14c12.25,-17.07 23.54,-34.95 35.98,-51.97l51.97 -74.45c8.48,-12.45 8.57,-11.94 0.67,-27.6 -31.78,-62.98 -74.6,-165.22 -107.15,-233.85 -18.85,-39.75 -36.09,-77.44 -54.86,-117.82 -32.82,-70.57 -73.69,-165.81 -107.27,-233.34 -18.24,-36.67 -37.08,-78.49 -53.76,-116.54l-55.19 -117.95 -1027.6 -0.37c0.82,10.34 39.71,90.34 47.32,107.36 48.31,107.95 102.63,217.26 148.77,323.42 60.09,138.26 136.73,294.62 198.77,432.86 31.99,71.3 65.76,144.17 98.26,215.13l273.09 594.74c4.05,9.78 8.05,16.8 12.18,26.11 5.54,12.48 6.28,19.96 15.56,26.87z"/>
    <path class="fil5" d="M-0 2508.92l1189.35 0.28 -1187.43 -0.55 0.18 -275.71 1060.18 -0.01c-8.85,-23.84 -21.69,-46.8 -31.29,-69.81 -25.31,-60.64 -67.88,-146.67 -95.79,-209.18l-64.04 -138.99c-38.43,-77.01 -90.01,-195.41 -128.04,-278.31 -38.72,-84.4 -92.51,-196.66 -127.67,-279.09 -10.09,-23.65 -21.4,-46.31 -31.88,-69.75l-64.04 -139.08c-11.37,-23.08 -20.76,-47.48 -31.89,-69.79 -30.34,-60.83 -64.79,-142.3 -96.18,-208.41l-95.8 -209.23c-20.45,-47.18 -44.6,-92.82 -63.86,-139.52 -10.06,-24.38 -21.64,-46.44 -31.86,-69.81l-96.02 -208.66c-10.81,-21.99 -20.44,-47.12 -31.92,-69.73 -10.05,-19.78 -24.75,-49.91 -31.82,-71.56 25.32,0 129.63,4.71 143.72,-2.01l-183.89 0 0 2508.92z"/>
    <path class="fil5" d="M4702.58 765.66c5.02,8.62 2.83,29.07 2.82,39.06l-0.42 373.53c0,24.45 5.59,61.67 -6.68,78.7l-102.69 147.27c-12.19,17.33 -23.16,32.1 -35.07,49.94 -21.65,32.44 -46.34,66.02 -68.64,99.03 -22.79,33.72 -46.93,65.94 -68.81,98.68l-68.83 98.72c-47.39,65.02 -89.42,130.11 -136.55,195.71 -91.95,127.98 -182.75,268.23 -275,395.18 -53.08,73.04 -44.14,50.77 -19.7,107.37 64.14,148.5 147.5,310.23 210.22,457.36 8.18,19.19 17.17,36.36 26.15,55.95 8.95,19.53 16.86,39.25 26.7,58.54l158.37 344.3c40.19,80.24 92.01,198.67 131.83,285.43l158.37 344.26c9.19,19.33 17.23,39.59 26.58,58.86 9.21,18.97 18,37.42 26.11,56.19 13.35,30.89 18.06,26.57 17.91,67.7 -0.41,112 -0.32,224.15 -0.32,336.15l-137.25 -0.79 0.35 2.46 139.48 0 0 -3753.62 -4.93 4.03z"/>
   </g>
  </g>
 </g>
</svg>
